<?xml version="1.0" encoding="UTF-8"?><svg xmlns="http://www.w3.org/2000/svg" xmlns:xlink="http://www.w3.org/1999/xlink" fill-opacity="1" color-rendering="auto" color-interpolation="auto" text-rendering="auto" stroke="black" stroke-linecap="square" width="1200" stroke-miterlimit="10" shape-rendering="auto" stroke-opacity="1" fill="black" stroke-dasharray="none" font-weight="normal" stroke-width="1" height="1440" font-family="'Dialog'" font-style="normal" stroke-linejoin="miter" font-size="12px" stroke-dashoffset="0" image-rendering="auto">
  <!--Generated by ySVG 2.5-->
  <defs id="genericDefs"/>
  <g>
    <defs id="defs1">
      <clipPath clipPathUnits="userSpaceOnUse" id="clipPath1">
        <path d="M0 0 L1200 0 L1200 1440 L0 1440 L0 0 Z"/>
      </clipPath>
      <clipPath clipPathUnits="userSpaceOnUse" id="clipPath2">
        <path d="M53 -20 L1871 -20 L1871 2161.6001 L53 2161.6001 L53 -20 Z"/>
      </clipPath>
    </defs>
    <g fill="white" text-rendering="geometricPrecision" shape-rendering="geometricPrecision" transform="scale(0.6601,0.6601) translate(-53,20)" stroke="white">
      <rect x="53" width="1819" height="2182" y="-20" clip-path="url(#clipPath2)" stroke="none"/>
    </g>
    <g fill="white" text-rendering="geometricPrecision" shape-rendering="geometricPrecision" transform="matrix(0.6601,0,0,0.6601,-34.9835,13.2013)" stroke="white">
      <rect x="63" width="1241" height="1300.3906" y="74" clip-path="url(#clipPath2)" stroke="none"/>
    </g>
    <g text-rendering="geometricPrecision" stroke-miterlimit="1.45" shape-rendering="geometricPrecision" font-family="sans-serif" transform="matrix(0.6601,0,0,0.6601,-34.9835,13.2013)" stroke-linecap="butt">
      <text x="679.6826" xml:space="preserve" y="728.3496" clip-path="url(#clipPath2)" stroke="none">1</text>
      <rect fill="none" x="63" width="1241" height="1300.3906" y="74" clip-path="url(#clipPath2)"/>
    </g>
    <g fill="rgb(255,204,0)" text-rendering="geometricPrecision" shape-rendering="geometricPrecision" transform="matrix(0.6601,0,0,0.6601,-34.9835,13.2013)" stroke="rgb(255,204,0)">
      <rect x="63" width="1241" height="68" y="74" clip-path="url(#clipPath2)" stroke="none"/>
    </g>
    <g text-rendering="geometricPrecision" stroke-miterlimit="1.45" shape-rendering="geometricPrecision" transform="matrix(0.6601,0,0,0.6601,-34.9835,13.2013)" stroke-linecap="butt">
      <rect fill="none" x="63" width="1241" height="68" y="74" clip-path="url(#clipPath2)"/>
    </g>
    <g fill="rgb(255,204,0)" text-rendering="geometricPrecision" shape-rendering="geometricPrecision" transform="matrix(0.6601,0,0,0.6601,-34.9835,13.2013)" stroke="rgb(255,204,0)">
      <rect x="63" width="1241" height="159" y="1291.3906" clip-path="url(#clipPath2)" stroke="none"/>
    </g>
    <g text-rendering="geometricPrecision" stroke-miterlimit="1.45" shape-rendering="geometricPrecision" transform="matrix(0.6601,0,0,0.6601,-34.9835,13.2013)" stroke-linecap="butt">
      <rect fill="none" x="63" width="1241" height="159" y="1291.3906" clip-path="url(#clipPath2)"/>
    </g>
    <g fill="white" text-rendering="geometricPrecision" shape-rendering="geometricPrecision" transform="matrix(0.6601,0,0,0.6601,-34.9835,13.2013)" stroke="white">
      <rect x="187.5" width="143" height="50" y="83" clip-path="url(#clipPath2)" stroke="none"/>
    </g>
    <g text-rendering="geometricPrecision" stroke-miterlimit="1.45" shape-rendering="geometricPrecision" font-family="sans-serif" transform="matrix(0.6601,0,0,0.6601,-34.9835,13.2013)" stroke-linecap="butt">
      <text x="241.5625" xml:space="preserve" y="112.1543" clip-path="url(#clipPath2)" stroke="none">LOGO</text>
    </g>
    <g fill="white" text-rendering="geometricPrecision" shape-rendering="geometricPrecision" transform="matrix(0.6601,0,0,0.6601,-34.9835,13.2013)" stroke="white">
      <rect x="187.5" width="992.5" height="159" y="216.9219" clip-path="url(#clipPath2)" stroke="none"/>
    </g>
    <g text-rendering="geometricPrecision" stroke-miterlimit="1.45" shape-rendering="geometricPrecision" font-family="sans-serif" transform="matrix(0.6601,0,0,0.6601,-34.9835,13.2013)" stroke-linecap="butt">
      <text x="621.7666" xml:space="preserve" y="293.5918" clip-path="url(#clipPath2)" stroke="none">WELCOME MESSAGE</text>
      <text x="651.708" xml:space="preserve" y="307.5605" clip-path="url(#clipPath2)" stroke="none">byline text</text>
      <rect fill="none" x="187.5" width="992.5" height="159" y="216.9219" clip-path="url(#clipPath2)"/>
    </g>
    <g fill="white" text-rendering="geometricPrecision" shape-rendering="geometricPrecision" transform="matrix(0.6601,0,0,0.6601,-34.9835,13.2013)" stroke="white">
      <rect x="709" width="471" height="50" y="83" clip-path="url(#clipPath2)" stroke="none"/>
    </g>
    <g text-rendering="geometricPrecision" stroke-miterlimit="1.45" shape-rendering="geometricPrecision" font-family="sans-serif" transform="matrix(0.6601,0,0,0.6601,-34.9835,13.2013)" stroke-linecap="butt">
      <text x="892.7207" xml:space="preserve" y="112.1543" clip-path="url(#clipPath2)" stroke="none">TOP NAVIGATION</text>
    </g>
    <g fill="rgb(255,204,0)" text-rendering="geometricPrecision" shape-rendering="geometricPrecision" transform="matrix(0.6601,0,0,0.6601,-34.9835,13.2013)" stroke="rgb(255,204,0)">
      <rect x="63.25" width="1241" height="352.1094" y="450.8438" clip-path="url(#clipPath2)" stroke="none"/>
    </g>
    <g text-rendering="geometricPrecision" stroke-miterlimit="1.45" shape-rendering="geometricPrecision" transform="matrix(0.6601,0,0,0.6601,-34.9835,13.2013)" stroke-linecap="butt">
      <rect fill="none" x="63.25" width="1241" height="352.1094" y="450.8438" clip-path="url(#clipPath2)"/>
    </g>
    <g fill="white" text-rendering="geometricPrecision" shape-rendering="geometricPrecision" transform="matrix(0.6601,0,0,0.6601,-34.9835,13.2013)" stroke="white">
      <rect x="187.5" width="221.25" height="159" y="1027.0938" clip-path="url(#clipPath2)" stroke="none"/>
    </g>
    <g text-rendering="geometricPrecision" stroke-miterlimit="1.45" shape-rendering="geometricPrecision" font-family="sans-serif" transform="matrix(0.6601,0,0,0.6601,-34.9835,13.2013)" stroke-linecap="butt">
      <text x="237.9316" xml:space="preserve" y="1110.748" clip-path="url(#clipPath2)" stroke="none">HEADING AND TEXT</text>
      <rect fill="none" x="187.5" width="221.25" height="159" y="1027.0938" clip-path="url(#clipPath2)"/>
    </g>
    <g fill="white" text-rendering="geometricPrecision" shape-rendering="geometricPrecision" transform="matrix(0.6601,0,0,0.6601,-34.9835,13.2013)" stroke="white">
      <rect x="447.5" width="221.25" height="159" y="1027.0938" clip-path="url(#clipPath2)" stroke="none"/>
    </g>
    <g text-rendering="geometricPrecision" stroke-miterlimit="1.45" shape-rendering="geometricPrecision" font-family="sans-serif" transform="matrix(0.6601,0,0,0.6601,-34.9835,13.2013)" stroke-linecap="butt">
      <text x="497.9316" xml:space="preserve" y="1110.748" clip-path="url(#clipPath2)" stroke="none">HEADING AND TEXT</text>
      <rect fill="none" x="447.5" width="221.25" height="159" y="1027.0938" clip-path="url(#clipPath2)"/>
    </g>
    <g fill="white" text-rendering="geometricPrecision" shape-rendering="geometricPrecision" transform="matrix(0.6601,0,0,0.6601,-34.9835,13.2013)" stroke="white">
      <rect x="707.5" width="221.25" height="159" y="1027.0938" clip-path="url(#clipPath2)" stroke="none"/>
    </g>
    <g text-rendering="geometricPrecision" stroke-miterlimit="1.45" shape-rendering="geometricPrecision" font-family="sans-serif" transform="matrix(0.6601,0,0,0.6601,-34.9835,13.2013)" stroke-linecap="butt">
      <text x="757.9316" xml:space="preserve" y="1110.748" clip-path="url(#clipPath2)" stroke="none">HEADING AND TEXT</text>
      <rect fill="none" x="707.5" width="221.25" height="159" y="1027.0938" clip-path="url(#clipPath2)"/>
    </g>
    <g fill="white" text-rendering="geometricPrecision" shape-rendering="geometricPrecision" transform="matrix(0.6601,0,0,0.6601,-34.9835,13.2013)" stroke="white">
      <rect x="958.75" width="221.25" height="159" y="1027.0938" clip-path="url(#clipPath2)" stroke="none"/>
    </g>
    <g text-rendering="geometricPrecision" stroke-miterlimit="1.45" shape-rendering="geometricPrecision" font-family="sans-serif" transform="matrix(0.6601,0,0,0.6601,-34.9835,13.2013)" stroke-linecap="butt">
      <text x="1009.1816" xml:space="preserve" y="1110.748" clip-path="url(#clipPath2)" stroke="none">HEADING AND TEXT</text>
      <rect fill="none" x="958.75" width="221.25" height="159" y="1027.0938" clip-path="url(#clipPath2)"/>
    </g>
    <g fill="white" text-rendering="geometricPrecision" shape-rendering="geometricPrecision" transform="matrix(0.6601,0,0,0.6601,-34.9835,13.2013)" stroke="white">
      <circle r="47.5" clip-path="url(#clipPath2)" cx="1069.375" cy="949.5938" stroke="none"/>
    </g>
    <g text-rendering="geometricPrecision" stroke-miterlimit="1.45" shape-rendering="geometricPrecision" font-family="sans-serif" transform="matrix(0.6601,0,0,0.6601,-34.9835,13.2013)" stroke-linecap="butt">
      <text x="1032.6924" xml:space="preserve" y="953.748" clip-path="url(#clipPath2)" stroke="none">IMAGE/ICON</text>
      <circle fill="none" r="47.5" clip-path="url(#clipPath2)" cx="1069.375" cy="949.5938"/>
    </g>
    <g fill="white" text-rendering="geometricPrecision" shape-rendering="geometricPrecision" transform="matrix(0.6601,0,0,0.6601,-34.9835,13.2013)" stroke="white">
      <circle r="47.5" clip-path="url(#clipPath2)" cx="818.125" cy="949.5938" stroke="none"/>
    </g>
    <g text-rendering="geometricPrecision" stroke-miterlimit="1.45" shape-rendering="geometricPrecision" font-family="sans-serif" transform="matrix(0.6601,0,0,0.6601,-34.9835,13.2013)" stroke-linecap="butt">
      <text x="781.4424" xml:space="preserve" y="953.748" clip-path="url(#clipPath2)" stroke="none">IMAGE/ICON</text>
      <circle fill="none" r="47.5" clip-path="url(#clipPath2)" cx="818.125" cy="949.5938"/>
    </g>
    <g fill="white" text-rendering="geometricPrecision" shape-rendering="geometricPrecision" transform="matrix(0.6601,0,0,0.6601,-34.9835,13.2013)" stroke="white">
      <circle r="47.5" clip-path="url(#clipPath2)" cx="558.125" cy="949.5938" stroke="none"/>
    </g>
    <g text-rendering="geometricPrecision" stroke-miterlimit="1.45" shape-rendering="geometricPrecision" font-family="sans-serif" transform="matrix(0.6601,0,0,0.6601,-34.9835,13.2013)" stroke-linecap="butt">
      <text x="521.4424" xml:space="preserve" y="953.748" clip-path="url(#clipPath2)" stroke="none">IMAGE/ICON</text>
      <circle fill="none" r="47.5" clip-path="url(#clipPath2)" cx="558.125" cy="949.5938"/>
    </g>
    <g fill="white" text-rendering="geometricPrecision" shape-rendering="geometricPrecision" transform="matrix(0.6601,0,0,0.6601,-34.9835,13.2013)" stroke="white">
      <circle r="47.5" clip-path="url(#clipPath2)" cx="298.125" cy="949.5938" stroke="none"/>
    </g>
    <g text-rendering="geometricPrecision" stroke-miterlimit="1.45" shape-rendering="geometricPrecision" font-family="sans-serif" transform="matrix(0.6601,0,0,0.6601,-34.9835,13.2013)" stroke-linecap="butt">
      <text x="261.4424" xml:space="preserve" y="953.748" clip-path="url(#clipPath2)" stroke="none">IMAGE/ICON</text>
      <circle fill="none" r="47.5" clip-path="url(#clipPath2)" cx="298.125" cy="949.5938"/>
    </g>
    <g fill="silver" text-rendering="geometricPrecision" shape-rendering="geometricPrecision" transform="matrix(0.6601,0,0,0.6601,-34.9835,13.2013)" stroke="silver">
      <rect x="187.5" width="244.8438" height="209.6875" y="522.0547" clip-path="url(#clipPath2)" stroke="none"/>
    </g>
    <g text-rendering="geometricPrecision" stroke-miterlimit="1.45" shape-rendering="geometricPrecision" font-family="sans-serif" transform="matrix(0.6601,0,0,0.6601,-34.9835,13.2013)" stroke-linecap="butt">
      <text x="288.6816" xml:space="preserve" y="631.0527" clip-path="url(#clipPath2)" stroke="none">PHOTO</text>
      <rect fill="none" x="187.5" width="244.8438" height="209.6875" y="522.0547" clip-path="url(#clipPath2)"/>
    </g>
    <g fill="white" text-rendering="geometricPrecision" shape-rendering="geometricPrecision" transform="matrix(0.6601,0,0,0.6601,-34.9835,13.2013)" stroke="white">
      <rect x="483.8281" width="696.1719" height="209.6875" y="522.0547" clip-path="url(#clipPath2)" stroke="none"/>
    </g>
    <g text-rendering="geometricPrecision" stroke-miterlimit="1.45" shape-rendering="geometricPrecision" font-family="sans-serif" transform="matrix(0.6601,0,0,0.6601,-34.9835,13.2013)" stroke-linecap="butt">
      <text x="816.6826" xml:space="preserve" y="631.0527" clip-path="url(#clipPath2)" stroke="none">TEXT</text>
    </g>
    <g fill="white" text-rendering="geometricPrecision" shape-rendering="geometricPrecision" transform="matrix(0.6601,0,0,0.6601,-34.9835,13.2013)" stroke="white">
      <rect x="501.9062" width="363.1875" height="56.5625" y="1343.3906" clip-path="url(#clipPath2)" stroke="none"/>
    </g>
    <g text-rendering="geometricPrecision" stroke-miterlimit="1.45" shape-rendering="geometricPrecision" font-family="sans-serif" transform="matrix(0.6601,0,0,0.6601,-34.9835,13.2013)" stroke-linecap="butt">
      <text x="631.4014" xml:space="preserve" y="1375.8262" clip-path="url(#clipPath2)" stroke="none">COPYRIGHT TEXT</text>
    </g>
    <g fill="white" text-rendering="geometricPrecision" shape-rendering="geometricPrecision" transform="matrix(0.6601,0,0,0.6601,-34.9835,13.2013)" stroke="white">
      <rect x="1448.6708" width="412.0666" height="2077.4269" y="74" clip-path="url(#clipPath2)" stroke="none"/>
    </g>
    <g text-rendering="geometricPrecision" stroke-miterlimit="1.45" shape-rendering="geometricPrecision" transform="matrix(0.6601,0,0,0.6601,-34.9835,13.2013)" stroke-linecap="butt">
      <rect fill="none" x="1448.6708" width="412.0666" height="2077.4269" y="74" clip-path="url(#clipPath2)"/>
    </g>
    <g fill="rgb(255,204,0)" text-rendering="geometricPrecision" shape-rendering="geometricPrecision" transform="matrix(0.6601,0,0,0.6601,-34.9835,13.2013)" stroke="rgb(255,204,0)">
      <rect x="1448.6708" width="412.0666" height="68" y="74" clip-path="url(#clipPath2)" stroke="none"/>
    </g>
    <g text-rendering="geometricPrecision" stroke-miterlimit="1.45" shape-rendering="geometricPrecision" transform="matrix(0.6601,0,0,0.6601,-34.9835,13.2013)" stroke-linecap="butt">
      <rect fill="none" x="1448.6708" width="412.0666" height="68" y="74" clip-path="url(#clipPath2)"/>
    </g>
    <g fill="white" text-rendering="geometricPrecision" shape-rendering="geometricPrecision" transform="matrix(0.6601,0,0,0.6601,-34.9835,13.2013)" stroke="white">
      <rect x="1473.1103" width="363.1875" height="181.2216" y="179.8005" clip-path="url(#clipPath2)" stroke="none"/>
    </g>
    <g text-rendering="geometricPrecision" stroke-miterlimit="1.45" shape-rendering="geometricPrecision" font-family="sans-serif" transform="matrix(0.6601,0,0,0.6601,-34.9835,13.2013)" stroke-linecap="butt">
      <text x="1592.7207" xml:space="preserve" y="267.5813" clip-path="url(#clipPath2)" stroke="none">WELCOME MESSAGE</text>
      <text x="1622.6621" xml:space="preserve" y="281.55" clip-path="url(#clipPath2)" stroke="none">byline text</text>
      <rect fill="none" x="1473.1103" width="363.1875" height="181.2216" y="179.8005" clip-path="url(#clipPath2)"/>
    </g>
    <g fill="rgb(255,204,0)" text-rendering="geometricPrecision" shape-rendering="geometricPrecision" transform="matrix(0.6601,0,0,0.6601,-34.9835,13.2013)" stroke="rgb(255,204,0)">
      <rect x="1448.6708" width="412.0666" height="331.969" y="399.7732" clip-path="url(#clipPath2)" stroke="none"/>
    </g>
    <g text-rendering="geometricPrecision" stroke-miterlimit="1.45" shape-rendering="geometricPrecision" transform="matrix(0.6601,0,0,0.6601,-34.9835,13.2013)" stroke-linecap="butt">
      <rect fill="none" x="1448.6708" width="412.0666" height="331.969" y="399.7732" clip-path="url(#clipPath2)"/>
    </g>
    <g fill="silver" text-rendering="geometricPrecision" shape-rendering="geometricPrecision" transform="matrix(0.6601,0,0,0.6601,-34.9835,13.2013)" stroke="silver">
      <rect x="1605.05" width="99.3082" height="86.3588" y="437.3762" clip-path="url(#clipPath2)" stroke="none"/>
    </g>
    <g text-rendering="geometricPrecision" stroke-miterlimit="1.45" shape-rendering="geometricPrecision" font-family="sans-serif" transform="matrix(0.6601,0,0,0.6601,-34.9835,13.2013)" stroke-linecap="butt">
      <text x="1633.4639" xml:space="preserve" y="484.7098" clip-path="url(#clipPath2)" stroke="none">PHOTO</text>
      <rect fill="none" x="1605.05" width="99.3082" height="86.3588" y="437.3762" clip-path="url(#clipPath2)"/>
    </g>
    <g fill="white" text-rendering="geometricPrecision" shape-rendering="geometricPrecision" transform="matrix(0.6601,0,0,0.6601,-34.9835,13.2013)" stroke="white">
      <rect x="1471.5161" width="364.7818" height="119.7716" y="553.7349" clip-path="url(#clipPath2)" stroke="none"/>
    </g>
    <g text-rendering="geometricPrecision" stroke-miterlimit="1.45" shape-rendering="geometricPrecision" font-family="sans-serif" transform="matrix(0.6601,0,0,0.6601,-34.9835,13.2013)" stroke-linecap="butt">
      <text x="1638.6755" xml:space="preserve" y="617.775" clip-path="url(#clipPath2)" stroke="none">TEXT</text>
    </g>
    <g fill="rgb(255,204,0)" text-rendering="geometricPrecision" shape-rendering="geometricPrecision" transform="matrix(0.6601,0,0,0.6601,-34.9835,13.2013)" stroke="rgb(255,204,0)">
      <rect x="1448.6708" width="412.0666" height="68" y="2083.4269" clip-path="url(#clipPath2)" stroke="none"/>
    </g>
    <g text-rendering="geometricPrecision" stroke-miterlimit="1.45" shape-rendering="geometricPrecision" transform="matrix(0.6601,0,0,0.6601,-34.9835,13.2013)" stroke-linecap="butt">
      <rect fill="none" x="1448.6708" width="412.0666" height="68" y="2083.4269" clip-path="url(#clipPath2)"/>
    </g>
    <g fill="white" text-rendering="geometricPrecision" shape-rendering="geometricPrecision" transform="matrix(0.6601,0,0,0.6601,-34.9835,13.2013)" stroke="white">
      <rect x="1520.8172" width="267.7738" height="39.0496" y="1951.6311" clip-path="url(#clipPath2)" stroke="none"/>
    </g>
    <g text-rendering="geometricPrecision" stroke-miterlimit="1.45" shape-rendering="geometricPrecision" font-family="sans-serif" transform="matrix(0.6601,0,0,0.6601,-34.9835,13.2013)" stroke-linecap="butt">
      <text x="1602.6055" xml:space="preserve" y="1975.3102" clip-path="url(#clipPath2)" stroke="none">COPYRIGHT TEXT</text>
    </g>
    <g fill="white" text-rendering="geometricPrecision" shape-rendering="geometricPrecision" transform="matrix(0.6601,0,0,0.6601,-34.9835,13.2013)" stroke="white">
      <rect x="1473.1103" width="363.1875" height="159" y="897.2745" clip-path="url(#clipPath2)" stroke="none"/>
    </g>
    <g text-rendering="geometricPrecision" stroke-miterlimit="1.45" shape-rendering="geometricPrecision" font-family="sans-serif" transform="matrix(0.6601,0,0,0.6601,-34.9835,13.2013)" stroke-linecap="butt">
      <text x="1594.5107" xml:space="preserve" y="980.9288" clip-path="url(#clipPath2)" stroke="none">HEADING AND TEXT</text>
      <rect fill="none" x="1473.1103" width="363.1875" height="159" y="897.2745" clip-path="url(#clipPath2)"/>
    </g>
    <g fill="white" text-rendering="geometricPrecision" shape-rendering="geometricPrecision" transform="matrix(0.6601,0,0,0.6601,-34.9835,13.2013)" stroke="white">
      <circle r="47.5" clip-path="url(#clipPath2)" cx="1654.7041" cy="819.7745" stroke="none"/>
    </g>
    <g text-rendering="geometricPrecision" stroke-miterlimit="1.45" shape-rendering="geometricPrecision" font-family="sans-serif" transform="matrix(0.6601,0,0,0.6601,-34.9835,13.2013)" stroke-linecap="butt">
      <text x="1618.0215" xml:space="preserve" y="823.9288" clip-path="url(#clipPath2)" stroke="none">IMAGE/ICON</text>
      <circle fill="none" r="47.5" clip-path="url(#clipPath2)" cx="1654.7041" cy="819.7745"/>
    </g>
    <g fill="white" text-rendering="geometricPrecision" shape-rendering="geometricPrecision" transform="matrix(0.6601,0,0,0.6601,-34.9835,13.2013)" stroke="white">
      <rect x="1473.1804" width="143" height="36.489" y="89.7555" clip-path="url(#clipPath2)" stroke="none"/>
    </g>
    <g text-rendering="geometricPrecision" stroke-miterlimit="1.45" shape-rendering="geometricPrecision" font-family="sans-serif" transform="matrix(0.6601,0,0,0.6601,-34.9835,13.2013)" stroke-linecap="butt">
      <text x="1527.2429" xml:space="preserve" y="112.1543" clip-path="url(#clipPath2)" stroke="none">LOGO</text>
    </g>
    <g fill="white" text-rendering="geometricPrecision" shape-rendering="geometricPrecision" transform="matrix(0.6601,0,0,0.6601,-34.9835,13.2013)" stroke="white">
      <rect x="1797.4326" width="38.8486" height="36.489" y="89.7555" clip-path="url(#clipPath2)" stroke="none"/>
    </g>
    <g text-rendering="geometricPrecision" stroke-miterlimit="1.45" shape-rendering="geometricPrecision" font-family="sans-serif" transform="matrix(0.6601,0,0,0.6601,-34.9835,13.2013)" stroke-linecap="butt">
      <text x="1810.3618" xml:space="preserve" y="98.1855" clip-path="url(#clipPath2)" stroke="none">---</text>
      <text x="1810.3618" xml:space="preserve" y="112.1543" clip-path="url(#clipPath2)" stroke="none">---</text>
      <text x="1810.3618" xml:space="preserve" y="126.123" clip-path="url(#clipPath2)" stroke="none">---</text>
      <rect fill="none" x="1797.4326" width="38.8486" height="36.489" y="89.7555" clip-path="url(#clipPath2)"/>
    </g>
    <g fill="white" text-rendering="geometricPrecision" shape-rendering="geometricPrecision" transform="matrix(0.6601,0,0,0.6601,-34.9835,13.2013)" stroke="white">
      <rect x="1473.1103" width="363.1875" height="159" y="1221.8068" clip-path="url(#clipPath2)" stroke="none"/>
    </g>
    <g text-rendering="geometricPrecision" stroke-miterlimit="1.45" shape-rendering="geometricPrecision" font-family="sans-serif" transform="matrix(0.6601,0,0,0.6601,-34.9835,13.2013)" stroke-linecap="butt">
      <text x="1594.5107" xml:space="preserve" y="1305.4612" clip-path="url(#clipPath2)" stroke="none">HEADING AND TEXT</text>
      <rect fill="none" x="1473.1103" width="363.1875" height="159" y="1221.8068" clip-path="url(#clipPath2)"/>
    </g>
    <g fill="white" text-rendering="geometricPrecision" shape-rendering="geometricPrecision" transform="matrix(0.6601,0,0,0.6601,-34.9835,13.2013)" stroke="white">
      <circle r="47.5" clip-path="url(#clipPath2)" cx="1654.7041" cy="1144.3068" stroke="none"/>
    </g>
    <g text-rendering="geometricPrecision" stroke-miterlimit="1.45" shape-rendering="geometricPrecision" font-family="sans-serif" transform="matrix(0.6601,0,0,0.6601,-34.9835,13.2013)" stroke-linecap="butt">
      <text x="1618.0215" xml:space="preserve" y="1148.4612" clip-path="url(#clipPath2)" stroke="none">IMAGE/ICON</text>
      <circle fill="none" r="47.5" clip-path="url(#clipPath2)" cx="1654.7041" cy="1144.3068"/>
    </g>
    <g fill="white" text-rendering="geometricPrecision" shape-rendering="geometricPrecision" transform="matrix(0.6601,0,0,0.6601,-34.9835,13.2013)" stroke="white">
      <rect x="1473.1103" width="363.1875" height="159" y="1544.4409" clip-path="url(#clipPath2)" stroke="none"/>
    </g>
    <g text-rendering="geometricPrecision" stroke-miterlimit="1.45" shape-rendering="geometricPrecision" font-family="sans-serif" transform="matrix(0.6601,0,0,0.6601,-34.9835,13.2013)" stroke-linecap="butt">
      <text x="1594.5107" xml:space="preserve" y="1628.0952" clip-path="url(#clipPath2)" stroke="none">HEADING AND TEXT</text>
      <rect fill="none" x="1473.1103" width="363.1875" height="159" y="1544.4409" clip-path="url(#clipPath2)"/>
    </g>
    <g fill="white" text-rendering="geometricPrecision" shape-rendering="geometricPrecision" transform="matrix(0.6601,0,0,0.6601,-34.9835,13.2013)" stroke="white">
      <circle r="47.5" clip-path="url(#clipPath2)" cx="1654.7041" cy="1466.9409" stroke="none"/>
    </g>
    <g text-rendering="geometricPrecision" stroke-miterlimit="1.45" shape-rendering="geometricPrecision" font-family="sans-serif" transform="matrix(0.6601,0,0,0.6601,-34.9835,13.2013)" stroke-linecap="butt">
      <text x="1618.0215" xml:space="preserve" y="1471.0952" clip-path="url(#clipPath2)" stroke="none">IMAGE/ICON</text>
      <circle fill="none" r="47.5" clip-path="url(#clipPath2)" cx="1654.7041" cy="1466.9409"/>
    </g>
    <g fill="white" text-rendering="geometricPrecision" shape-rendering="geometricPrecision" transform="matrix(0.6601,0,0,0.6601,-34.9835,13.2013)" stroke="white">
      <rect x="1473.1103" width="363.1875" height="159" y="1867.0749" clip-path="url(#clipPath2)" stroke="none"/>
    </g>
    <g text-rendering="geometricPrecision" stroke-miterlimit="1.45" shape-rendering="geometricPrecision" font-family="sans-serif" transform="matrix(0.6601,0,0,0.6601,-34.9835,13.2013)" stroke-linecap="butt">
      <text x="1594.5107" xml:space="preserve" y="1950.7292" clip-path="url(#clipPath2)" stroke="none">HEADING AND TEXT</text>
      <rect fill="none" x="1473.1103" width="363.1875" height="159" y="1867.0749" clip-path="url(#clipPath2)"/>
    </g>
    <g fill="white" text-rendering="geometricPrecision" shape-rendering="geometricPrecision" transform="matrix(0.6601,0,0,0.6601,-34.9835,13.2013)" stroke="white">
      <circle r="47.5" clip-path="url(#clipPath2)" cx="1654.7041" cy="1789.5749" stroke="none"/>
    </g>
    <g text-rendering="geometricPrecision" stroke-miterlimit="1.45" shape-rendering="geometricPrecision" font-family="sans-serif" transform="matrix(0.6601,0,0,0.6601,-34.9835,13.2013)" stroke-linecap="butt">
      <text x="1618.0215" xml:space="preserve" y="1793.7292" clip-path="url(#clipPath2)" stroke="none">IMAGE/ICON</text>
      <circle fill="none" r="47.5" clip-path="url(#clipPath2)" cx="1654.7041" cy="1789.5749"/>
    </g>
    <g fill="white" text-rendering="geometricPrecision" shape-rendering="geometricPrecision" transform="matrix(0.6601,0,0,0.6601,-34.9835,13.2013)" stroke="white">
      <rect x="1473.1103" width="363.1875" height="39.0496" y="2097.9021" clip-path="url(#clipPath2)" stroke="none"/>
    </g>
    <g text-rendering="geometricPrecision" stroke-miterlimit="1.45" shape-rendering="geometricPrecision" font-family="sans-serif" transform="matrix(0.6601,0,0,0.6601,-34.9835,13.2013)" stroke-linecap="butt">
      <text x="1602.6055" xml:space="preserve" y="2121.5811" clip-path="url(#clipPath2)" stroke="none">COPYRIGHT TEXT</text>
    </g>
    <g fill="white" text-rendering="geometricPrecision" shape-rendering="geometricPrecision" transform="matrix(0.6601,0,0,0.6601,-34.9835,13.2013)" stroke="white">
      <rect x="1448.6708" width="363.1875" height="53.5963" y="-9.5963" clip-path="url(#clipPath2)" stroke="none"/>
    </g>
    <g text-rendering="geometricPrecision" stroke-miterlimit="1.45" shape-rendering="geometricPrecision" font-family="sans-serif" transform="matrix(0.6601,0,0,0.6601,-34.9835,13.2013)" stroke-linecap="butt">
      <text x="1581.5468" xml:space="preserve" y="21.3561" clip-path="url(#clipPath2)" stroke="none">MOBILE LAYOUT</text>
      <rect fill="none" x="1448.6708" width="363.1875" height="53.5963" y="-9.5963" clip-path="url(#clipPath2)"/>
    </g>
    <g fill="white" text-rendering="geometricPrecision" shape-rendering="geometricPrecision" transform="matrix(0.6601,0,0,0.6601,-34.9835,13.2013)" stroke="white">
      <rect x="63" width="363.1875" height="53.5963" y="-9.5963" clip-path="url(#clipPath2)" stroke="none"/>
    </g>
    <g text-rendering="geometricPrecision" stroke-miterlimit="1.45" shape-rendering="geometricPrecision" font-family="sans-serif" transform="matrix(0.6601,0,0,0.6601,-34.9835,13.2013)" stroke-linecap="butt">
      <text x="190.6348" xml:space="preserve" y="21.3561" clip-path="url(#clipPath2)" stroke="none">DESKTOP LAYOUT</text>
      <rect fill="none" x="63" width="363.1875" height="53.5963" y="-9.5963" clip-path="url(#clipPath2)"/>
    </g>
  </g>
</svg>
